<mxfile host="app.diagrams.net" modified="2023-04-16T08:46:16.371Z" agent="Mozilla/5.0 (Windows NT 10.0; Win64; x64) AppleWebKit/537.36 (KHTML, like Gecko) Chrome/112.0.0.0 Safari/537.36" etag="YTcLeY2ao-RXdPfpFgUK" version="21.1.8" type="github">
  <diagram id="C5RBs43oDa-KdzZeNtuy" name="Page-1">
    <mxGraphModel dx="1941" dy="616" grid="1" gridSize="10" guides="1" tooltips="1" connect="1" arrows="1" fold="1" page="1" pageScale="1" pageWidth="827" pageHeight="1169" math="0" shadow="0">
      <root>
        <mxCell id="WIyWlLk6GJQsqaUBKTNV-0" />
        <mxCell id="WIyWlLk6GJQsqaUBKTNV-1" parent="WIyWlLk6GJQsqaUBKTNV-0" />
        <mxCell id="KwYt1IcLN5_JU3K1t5Qj-2" value="" style="edgeStyle=orthogonalEdgeStyle;rounded=0;orthogonalLoop=1;jettySize=auto;html=1;" edge="1" parent="WIyWlLk6GJQsqaUBKTNV-1" target="KwYt1IcLN5_JU3K1t5Qj-1">
          <mxGeometry relative="1" as="geometry">
            <mxPoint x="400" y="220" as="sourcePoint" />
          </mxGeometry>
        </mxCell>
        <mxCell id="KwYt1IcLN5_JU3K1t5Qj-20" value="YES" style="edgeStyle=orthogonalEdgeStyle;rounded=0;orthogonalLoop=1;jettySize=auto;html=1;" edge="1" parent="WIyWlLk6GJQsqaUBKTNV-1" source="KwYt1IcLN5_JU3K1t5Qj-1" target="KwYt1IcLN5_JU3K1t5Qj-4">
          <mxGeometry x="-0.6066" y="5" relative="1" as="geometry">
            <Array as="points">
              <mxPoint x="650" y="335" />
            </Array>
            <mxPoint as="offset" />
          </mxGeometry>
        </mxCell>
        <mxCell id="KwYt1IcLN5_JU3K1t5Qj-27" value="NO" style="edgeStyle=orthogonalEdgeStyle;rounded=0;orthogonalLoop=1;jettySize=auto;html=1;exitX=0;exitY=0.5;exitDx=0;exitDy=0;entryX=1;entryY=0.5;entryDx=0;entryDy=0;" edge="1" parent="WIyWlLk6GJQsqaUBKTNV-1" source="KwYt1IcLN5_JU3K1t5Qj-1">
          <mxGeometry y="-5" relative="1" as="geometry">
            <mxPoint x="130" y="335" as="targetPoint" />
            <Array as="points">
              <mxPoint x="240" y="335" />
              <mxPoint x="240" y="335" />
            </Array>
            <mxPoint as="offset" />
          </mxGeometry>
        </mxCell>
        <mxCell id="KwYt1IcLN5_JU3K1t5Qj-1" value="if (year % 4) equal 0" style="rhombus;whiteSpace=wrap;html=1;strokeWidth=2;" vertex="1" parent="WIyWlLk6GJQsqaUBKTNV-1">
          <mxGeometry x="300" y="290" width="200" height="90" as="geometry" />
        </mxCell>
        <mxCell id="KwYt1IcLN5_JU3K1t5Qj-10" value="NO" style="edgeStyle=orthogonalEdgeStyle;rounded=0;orthogonalLoop=1;jettySize=auto;html=1;fontSize=15;" edge="1" parent="WIyWlLk6GJQsqaUBKTNV-1" source="KwYt1IcLN5_JU3K1t5Qj-4" target="KwYt1IcLN5_JU3K1t5Qj-49">
          <mxGeometry relative="1" as="geometry">
            <mxPoint x="150" y="530" as="targetPoint" />
            <mxPoint as="offset" />
          </mxGeometry>
        </mxCell>
        <mxCell id="KwYt1IcLN5_JU3K1t5Qj-12" value="YES" style="edgeStyle=orthogonalEdgeStyle;rounded=0;orthogonalLoop=1;jettySize=auto;html=1;" edge="1" parent="WIyWlLk6GJQsqaUBKTNV-1" source="KwYt1IcLN5_JU3K1t5Qj-4" target="KwYt1IcLN5_JU3K1t5Qj-11">
          <mxGeometry relative="1" as="geometry" />
        </mxCell>
        <mxCell id="KwYt1IcLN5_JU3K1t5Qj-4" value="if (year % 100) equal 0" style="rhombus;whiteSpace=wrap;html=1;strokeWidth=2;" vertex="1" parent="WIyWlLk6GJQsqaUBKTNV-1">
          <mxGeometry x="580" y="490" width="140" height="80" as="geometry" />
        </mxCell>
        <mxCell id="KwYt1IcLN5_JU3K1t5Qj-34" style="edgeStyle=orthogonalEdgeStyle;rounded=0;orthogonalLoop=1;jettySize=auto;html=1;" edge="1" parent="WIyWlLk6GJQsqaUBKTNV-1" source="KwYt1IcLN5_JU3K1t5Qj-11" target="KwYt1IcLN5_JU3K1t5Qj-50">
          <mxGeometry relative="1" as="geometry">
            <mxPoint x="160" y="740" as="targetPoint" />
          </mxGeometry>
        </mxCell>
        <mxCell id="KwYt1IcLN5_JU3K1t5Qj-41" style="edgeStyle=orthogonalEdgeStyle;rounded=0;orthogonalLoop=1;jettySize=auto;html=1;entryX=0.5;entryY=0;entryDx=0;entryDy=0;" edge="1" parent="WIyWlLk6GJQsqaUBKTNV-1" source="KwYt1IcLN5_JU3K1t5Qj-11">
          <mxGeometry relative="1" as="geometry">
            <mxPoint x="650" y="920" as="targetPoint" />
          </mxGeometry>
        </mxCell>
        <mxCell id="KwYt1IcLN5_JU3K1t5Qj-11" value="if (year % 400) equal 0" style="rhombus;whiteSpace=wrap;html=1;strokeWidth=2;" vertex="1" parent="WIyWlLk6GJQsqaUBKTNV-1">
          <mxGeometry x="580" y="700" width="140" height="90" as="geometry" />
        </mxCell>
        <mxCell id="KwYt1IcLN5_JU3K1t5Qj-44" value="" style="edgeStyle=orthogonalEdgeStyle;rounded=0;orthogonalLoop=1;jettySize=auto;html=1;" edge="1" parent="WIyWlLk6GJQsqaUBKTNV-1">
          <mxGeometry relative="1" as="geometry">
            <mxPoint x="400" y="100" as="sourcePoint" />
            <mxPoint x="400" y="160" as="targetPoint" />
          </mxGeometry>
        </mxCell>
        <mxCell id="KwYt1IcLN5_JU3K1t5Qj-45" value="year (int)" style="shape=parallelogram;html=1;strokeWidth=2;perimeter=parallelogramPerimeter;whiteSpace=wrap;rounded=1;arcSize=12;size=0.23;" vertex="1" parent="WIyWlLk6GJQsqaUBKTNV-1">
          <mxGeometry x="307.5" y="160" width="185" height="60" as="geometry" />
        </mxCell>
        <mxCell id="KwYt1IcLN5_JU3K1t5Qj-46" value="start" style="strokeWidth=2;html=1;shape=mxgraph.flowchart.start_1;whiteSpace=wrap;" vertex="1" parent="WIyWlLk6GJQsqaUBKTNV-1">
          <mxGeometry x="325" y="30" width="150" height="70" as="geometry" />
        </mxCell>
        <mxCell id="KwYt1IcLN5_JU3K1t5Qj-47" value="END" style="strokeWidth=2;html=1;shape=mxgraph.flowchart.start_1;whiteSpace=wrap;" vertex="1" parent="WIyWlLk6GJQsqaUBKTNV-1">
          <mxGeometry x="260" y="1140" width="150" height="70" as="geometry" />
        </mxCell>
        <mxCell id="KwYt1IcLN5_JU3K1t5Qj-59" style="edgeStyle=orthogonalEdgeStyle;rounded=0;orthogonalLoop=1;jettySize=auto;html=1;" edge="1" parent="WIyWlLk6GJQsqaUBKTNV-1" source="KwYt1IcLN5_JU3K1t5Qj-48">
          <mxGeometry relative="1" as="geometry">
            <mxPoint x="-120" y="1170" as="targetPoint" />
          </mxGeometry>
        </mxCell>
        <mxCell id="KwYt1IcLN5_JU3K1t5Qj-48" value="Not a leap year" style="shape=parallelogram;html=1;strokeWidth=2;perimeter=parallelogramPerimeter;whiteSpace=wrap;rounded=1;arcSize=12;size=0.23;fillColor=#f8cecc;strokeColor=#b85450;" vertex="1" parent="WIyWlLk6GJQsqaUBKTNV-1">
          <mxGeometry x="-40" y="305" width="185" height="60" as="geometry" />
        </mxCell>
        <mxCell id="KwYt1IcLN5_JU3K1t5Qj-63" style="edgeStyle=orthogonalEdgeStyle;rounded=0;orthogonalLoop=1;jettySize=auto;html=1;strokeColor=default;" edge="1" parent="WIyWlLk6GJQsqaUBKTNV-1" source="KwYt1IcLN5_JU3K1t5Qj-49">
          <mxGeometry relative="1" as="geometry">
            <mxPoint x="-120" y="580" as="targetPoint" />
          </mxGeometry>
        </mxCell>
        <mxCell id="KwYt1IcLN5_JU3K1t5Qj-49" value="&amp;nbsp;leap year" style="shape=parallelogram;html=1;strokeWidth=2;perimeter=parallelogramPerimeter;whiteSpace=wrap;rounded=1;arcSize=12;size=0.23;fillColor=#d5e8d4;strokeColor=#82b366;" vertex="1" parent="WIyWlLk6GJQsqaUBKTNV-1">
          <mxGeometry x="-40" y="500" width="185" height="60" as="geometry" />
        </mxCell>
        <mxCell id="KwYt1IcLN5_JU3K1t5Qj-53" style="edgeStyle=orthogonalEdgeStyle;rounded=0;orthogonalLoop=1;jettySize=auto;html=1;" edge="1" parent="WIyWlLk6GJQsqaUBKTNV-1" source="KwYt1IcLN5_JU3K1t5Qj-50" target="KwYt1IcLN5_JU3K1t5Qj-47">
          <mxGeometry relative="1" as="geometry">
            <mxPoint x="50" y="1180" as="targetPoint" />
            <Array as="points">
              <mxPoint x="-120" y="745" />
              <mxPoint x="-120" y="1170" />
            </Array>
          </mxGeometry>
        </mxCell>
        <mxCell id="KwYt1IcLN5_JU3K1t5Qj-50" value="Not a leap year" style="shape=parallelogram;html=1;strokeWidth=2;perimeter=parallelogramPerimeter;whiteSpace=wrap;rounded=1;arcSize=12;size=0.23;fillColor=#f8cecc;strokeColor=#b85450;" vertex="1" parent="WIyWlLk6GJQsqaUBKTNV-1">
          <mxGeometry x="-40" y="715" width="185" height="60" as="geometry" />
        </mxCell>
        <mxCell id="KwYt1IcLN5_JU3K1t5Qj-54" style="edgeStyle=orthogonalEdgeStyle;rounded=0;orthogonalLoop=1;jettySize=auto;html=1;entryX=1;entryY=0.5;entryDx=0;entryDy=0;entryPerimeter=0;" edge="1" parent="WIyWlLk6GJQsqaUBKTNV-1" source="KwYt1IcLN5_JU3K1t5Qj-51" target="KwYt1IcLN5_JU3K1t5Qj-47">
          <mxGeometry relative="1" as="geometry">
            <mxPoint x="630" y="1200" as="targetPoint" />
            <Array as="points">
              <mxPoint x="650" y="1175" />
            </Array>
          </mxGeometry>
        </mxCell>
        <mxCell id="KwYt1IcLN5_JU3K1t5Qj-51" value="&amp;nbsp;leap year" style="shape=parallelogram;html=1;strokeWidth=2;perimeter=parallelogramPerimeter;whiteSpace=wrap;rounded=1;arcSize=12;size=0.23;fillColor=#d5e8d4;strokeColor=#82b366;" vertex="1" parent="WIyWlLk6GJQsqaUBKTNV-1">
          <mxGeometry x="557.5" y="920" width="185" height="60" as="geometry" />
        </mxCell>
      </root>
    </mxGraphModel>
  </diagram>
</mxfile>
